<svg xmlns="http://www.w3.org/2000/svg" viewBox="0 0 120 96" role="img" aria-labelledby="title">
  <title id="title">小さなヒントをバッグに入れて持ち帰る様子</title>
  <path d="M21 39h78l-7 49H28l-7-49Z" fill="#dbecef" stroke="#4c5b56" stroke-width="4" stroke-linejoin="round"/>
  <path d="M41 42V31c0-10 8-18 19-18s19 8 19 18v11" fill="none" stroke="#4c5b56" stroke-width="5" stroke-linecap="round"/>
  <path d="M53 61h14" stroke="#4c5b56" stroke-width="4" stroke-linecap="round"/>
  <path d="M60 8c13 8 20 18 20 30-13-1-23 4-30 15-5-16-2-31 10-45Z" fill="#f3cf74" stroke="#4c5b56" stroke-width="4" stroke-linejoin="round"/>
  <path d="M59 18v20" stroke="#fffdf7" stroke-width="4" stroke-linecap="round"/>
  <circle cx="59" cy="44" r="3" fill="#fffdf7"/>
  <path d="M11 29c8-2 14-7 17-14M101 14c4 7 9 12 16 14" fill="none" stroke="#ea8f78" stroke-width="4" stroke-linecap="round"/>
</svg>
